<?xml version="1.0" encoding="UTF-8" standalone="no"?>
<!-- Created with Inkscape (http://www.inkscape.org/) -->
<svg
   xmlns:dc="http://purl.org/dc/elements/1.1/"
   xmlns:cc="http://web.resource.org/cc/"
   xmlns:rdf="http://www.w3.org/1999/02/22-rdf-syntax-ns#"
   xmlns:svg="http://www.w3.org/2000/svg"
   xmlns="http://www.w3.org/2000/svg"
   xmlns:sodipodi="http://sodipodi.sourceforge.net/DTD/sodipodi-0.dtd"
   xmlns:inkscape="http://www.inkscape.org/namespaces/inkscape"
   width="511.90024"
   height="159.83299"
   id="svg2"
   sodipodi:version="0.32"
   inkscape:version="0.44.1"
   sodipodi:docbase="/home/nthiery/work/Enseignement/Agregation/Notes"
   sodipodi:docname="Colliers.svg"
   version="1.0">
  <defs
     id="defs4" />
  <sodipodi:namedview
     id="base"
     pagecolor="white"
     bordercolor="#666666"
     borderopacity="1.0"
     inkscape:pageopacity="1"
     inkscape:pageshadow="2"
     inkscape:zoom="2.5747204"
     inkscape:cx="255.95012"
     inkscape:cy="79.916493"
     inkscape:document-units="mm"
     inkscape:current-layer="layer1"
     showguides="false"
     showgrid="true"
     gridspacingx="1cm"
     gridspacingy="1cm"
     grid_units="cm"
     inkscape:window-width="1392"
     inkscape:window-height="1025"
     inkscape:window-x="0"
     inkscape:window-y="0" />
  <metadata
     id="metadata7">
    <rdf:RDF>
      <cc:Work
         rdf:about="">
        <dc:format>image/svg+xml</dc:format>
        <dc:type
           rdf:resource="http://purl.org/dc/dcmitype/StillImage" />
      </cc:Work>
    </rdf:RDF>
  </metadata>
  <g
     inkscape:label="Calque 1"
     inkscape:groupmode="layer"
     id="layer1"
     transform="translate(-21.59376,-16.38809)">
    <g
       id="g10003"
       transform="translate(-5.669292,0)">
      <path
         d="M 177.44984 95.704521 A 71.045418 71.045418 0 1 1  35.359009,95.704521 A 71.045418 71.045418 0 1 1  177.44984 95.704521 z"
         sodipodi:ry="71.045418"
         sodipodi:rx="71.045418"
         sodipodi:cy="95.704521"
         sodipodi:cx="106.40443"
         id="path9096"
         style="opacity:1;fill:none;fill-opacity:1;fill-rule:nonzero;stroke:black;stroke-width:0.99921262;stroke-linecap:butt;stroke-linejoin:miter;stroke-miterlimit:4;stroke-dasharray:none;stroke-opacity:1"
         sodipodi:type="arc" />
      <path
         transform="translate(-204.9955,-147.5504)"
         d="M 319.2082 172.51932 A 8.0812206 8.0812206 0 1 1  303.04576,172.51932 A 8.0812206 8.0812206 0 1 1  319.2082 172.51932 z"
         sodipodi:ry="8.0812206"
         sodipodi:rx="8.0812206"
         sodipodi:cy="172.51932"
         sodipodi:cx="311.12698"
         id="path8080"
         style="fill:red;fill-opacity:1;fill-rule:nonzero;stroke:black;stroke-width:0.99921262;stroke-linecap:butt;stroke-linejoin:miter;stroke-miterlimit:4;stroke-dasharray:none;stroke-opacity:1"
         sodipodi:type="arc" />
      <path
         transform="translate(-275.2831,-76.1933)"
         d="M 319.2082 172.51932 A 8.0812206 8.0812206 0 1 1  303.04576,172.51932 A 8.0812206 8.0812206 0 1 1  319.2082 172.51932 z"
         sodipodi:ry="8.0812206"
         sodipodi:rx="8.0812206"
         sodipodi:cy="172.51932"
         sodipodi:cx="311.12698"
         id="path8082"
         style="fill:red;fill-opacity:1;fill-rule:nonzero;stroke:black;stroke-width:0.99921262;stroke-linecap:butt;stroke-linejoin:miter;stroke-miterlimit:4;stroke-dasharray:none;stroke-opacity:1"
         sodipodi:type="arc" />
      <path
         transform="translate(-134.5481,-77.37461)"
         d="M 319.2082 172.51932 A 8.0812206 8.0812206 0 1 1  303.04576,172.51932 A 8.0812206 8.0812206 0 1 1  319.2082 172.51932 z"
         sodipodi:ry="8.0812206"
         sodipodi:rx="8.0812206"
         sodipodi:cy="172.51932"
         sodipodi:cx="311.12698"
         id="path8084"
         style="fill:red;fill-opacity:1;fill-rule:nonzero;stroke:black;stroke-width:0.99921262;stroke-linecap:butt;stroke-linejoin:miter;stroke-miterlimit:4;stroke-dasharray:none;stroke-opacity:1"
         sodipodi:type="arc" />
      <path
         transform="translate(-204.6681,-4.879057)"
         d="M 319.2082 172.51932 A 8.0812206 8.0812206 0 1 1  303.04576,172.51932 A 8.0812206 8.0812206 0 1 1  319.2082 172.51932 z"
         sodipodi:ry="8.0812206"
         sodipodi:rx="8.0812206"
         sodipodi:cy="172.51932"
         sodipodi:cx="311.12698"
         id="path8086"
         style="fill:blue;fill-opacity:1;fill-rule:nonzero;stroke:black;stroke-width:0.99921262;stroke-linecap:butt;stroke-linejoin:miter;stroke-miterlimit:4;stroke-dasharray:none;stroke-opacity:1"
         sodipodi:type="arc" />
      <path
         transform="translate(-254.6688,-27.21425)"
         d="M 319.2082 172.51932 A 8.0812206 8.0812206 0 1 1  303.04576,172.51932 A 8.0812206 8.0812206 0 1 1  319.2082 172.51932 z"
         sodipodi:ry="8.0812206"
         sodipodi:rx="8.0812206"
         sodipodi:cy="172.51932"
         sodipodi:cx="311.12698"
         id="path8088"
         style="fill:red;fill-opacity:1;fill-rule:nonzero;stroke:black;stroke-width:0.99921262;stroke-linecap:butt;stroke-linejoin:miter;stroke-miterlimit:4;stroke-dasharray:none;stroke-opacity:1"
         sodipodi:type="arc" />
      <path
         transform="translate(-154.8071,-26.94277)"
         d="M 319.2082 172.51932 A 8.0812206 8.0812206 0 1 1  303.04576,172.51932 A 8.0812206 8.0812206 0 1 1  319.2082 172.51932 z"
         sodipodi:ry="8.0812206"
         sodipodi:rx="8.0812206"
         sodipodi:cy="172.51932"
         sodipodi:cx="311.12698"
         id="path8090"
         style="fill:blue;fill-opacity:1;fill-rule:nonzero;stroke:black;stroke-width:0.99921262;stroke-linecap:butt;stroke-linejoin:miter;stroke-miterlimit:4;stroke-dasharray:none;stroke-opacity:1"
         sodipodi:type="arc" />
      <path
         transform="translate(-154.5077,-125.9259)"
         d="M 319.2082 172.51932 A 8.0812206 8.0812206 0 1 1  303.04576,172.51932 A 8.0812206 8.0812206 0 1 1  319.2082 172.51932 z"
         sodipodi:ry="8.0812206"
         sodipodi:rx="8.0812206"
         sodipodi:cy="172.51932"
         sodipodi:cx="311.12698"
         id="path8092"
         style="fill:blue;fill-opacity:1;fill-rule:nonzero;stroke:black;stroke-width:0.99921262;stroke-linecap:butt;stroke-linejoin:miter;stroke-miterlimit:4;stroke-dasharray:none;stroke-opacity:1"
         sodipodi:type="arc" />
      <path
         transform="translate(-254.5569,-126.9641)"
         d="M 319.2082 172.51932 A 8.0812206 8.0812206 0 1 1  303.04576,172.51932 A 8.0812206 8.0812206 0 1 1  319.2082 172.51932 z"
         sodipodi:ry="8.0812206"
         sodipodi:rx="8.0812206"
         sodipodi:cy="172.51932"
         sodipodi:cx="311.12698"
         id="path8094"
         style="fill:red;fill-opacity:1;fill-rule:nonzero;stroke:black;stroke-width:0.99921262;stroke-linecap:butt;stroke-linejoin:miter;stroke-miterlimit:4;stroke-dasharray:none;stroke-opacity:1"
         sodipodi:type="arc" />
    </g>
    <g
       id="g10014"
       transform="matrix(0,-1,1,0,180.9303,202.516)">
      <path
         d="M 177.44984 95.704521 A 71.045418 71.045418 0 1 1  35.359009,95.704521 A 71.045418 71.045418 0 1 1  177.44984 95.704521 z"
         sodipodi:ry="71.045418"
         sodipodi:rx="71.045418"
         sodipodi:cy="95.704521"
         sodipodi:cx="106.40443"
         id="path10016"
         style="opacity:1;fill:none;fill-opacity:1;fill-rule:nonzero;stroke:black;stroke-width:0.99921262;stroke-linecap:butt;stroke-linejoin:miter;stroke-miterlimit:4;stroke-dasharray:none;stroke-opacity:1"
         sodipodi:type="arc" />
      <path
         transform="translate(-204.9955,-147.5504)"
         d="M 319.2082 172.51932 A 8.0812206 8.0812206 0 1 1  303.04576,172.51932 A 8.0812206 8.0812206 0 1 1  319.2082 172.51932 z"
         sodipodi:ry="8.0812206"
         sodipodi:rx="8.0812206"
         sodipodi:cy="172.51932"
         sodipodi:cx="311.12698"
         id="path10018"
         style="fill:red;fill-opacity:1;fill-rule:nonzero;stroke:black;stroke-width:0.99921262;stroke-linecap:butt;stroke-linejoin:miter;stroke-miterlimit:4;stroke-dasharray:none;stroke-opacity:1"
         sodipodi:type="arc" />
      <path
         transform="translate(-275.2831,-76.1933)"
         d="M 319.2082 172.51932 A 8.0812206 8.0812206 0 1 1  303.04576,172.51932 A 8.0812206 8.0812206 0 1 1  319.2082 172.51932 z"
         sodipodi:ry="8.0812206"
         sodipodi:rx="8.0812206"
         sodipodi:cy="172.51932"
         sodipodi:cx="311.12698"
         id="path10020"
         style="fill:red;fill-opacity:1;fill-rule:nonzero;stroke:black;stroke-width:0.99921262;stroke-linecap:butt;stroke-linejoin:miter;stroke-miterlimit:4;stroke-dasharray:none;stroke-opacity:1"
         sodipodi:type="arc" />
      <path
         transform="translate(-134.5481,-77.37461)"
         d="M 319.2082 172.51932 A 8.0812206 8.0812206 0 1 1  303.04576,172.51932 A 8.0812206 8.0812206 0 1 1  319.2082 172.51932 z"
         sodipodi:ry="8.0812206"
         sodipodi:rx="8.0812206"
         sodipodi:cy="172.51932"
         sodipodi:cx="311.12698"
         id="path10022"
         style="fill:red;fill-opacity:1;fill-rule:nonzero;stroke:black;stroke-width:0.99921262;stroke-linecap:butt;stroke-linejoin:miter;stroke-miterlimit:4;stroke-dasharray:none;stroke-opacity:1"
         sodipodi:type="arc" />
      <path
         transform="translate(-204.6681,-4.879057)"
         d="M 319.2082 172.51932 A 8.0812206 8.0812206 0 1 1  303.04576,172.51932 A 8.0812206 8.0812206 0 1 1  319.2082 172.51932 z"
         sodipodi:ry="8.0812206"
         sodipodi:rx="8.0812206"
         sodipodi:cy="172.51932"
         sodipodi:cx="311.12698"
         id="path10024"
         style="fill:blue;fill-opacity:1;fill-rule:nonzero;stroke:black;stroke-width:0.99921262;stroke-linecap:butt;stroke-linejoin:miter;stroke-miterlimit:4;stroke-dasharray:none;stroke-opacity:1"
         sodipodi:type="arc" />
      <path
         transform="translate(-254.6688,-27.21425)"
         d="M 319.2082 172.51932 A 8.0812206 8.0812206 0 1 1  303.04576,172.51932 A 8.0812206 8.0812206 0 1 1  319.2082 172.51932 z"
         sodipodi:ry="8.0812206"
         sodipodi:rx="8.0812206"
         sodipodi:cy="172.51932"
         sodipodi:cx="311.12698"
         id="path10026"
         style="fill:red;fill-opacity:1;fill-rule:nonzero;stroke:black;stroke-width:0.99921262;stroke-linecap:butt;stroke-linejoin:miter;stroke-miterlimit:4;stroke-dasharray:none;stroke-opacity:1"
         sodipodi:type="arc" />
      <path
         transform="translate(-154.8071,-26.94277)"
         d="M 319.2082 172.51932 A 8.0812206 8.0812206 0 1 1  303.04576,172.51932 A 8.0812206 8.0812206 0 1 1  319.2082 172.51932 z"
         sodipodi:ry="8.0812206"
         sodipodi:rx="8.0812206"
         sodipodi:cy="172.51932"
         sodipodi:cx="311.12698"
         id="path10028"
         style="fill:blue;fill-opacity:1;fill-rule:nonzero;stroke:black;stroke-width:0.99921262;stroke-linecap:butt;stroke-linejoin:miter;stroke-miterlimit:4;stroke-dasharray:none;stroke-opacity:1"
         sodipodi:type="arc" />
      <path
         transform="translate(-154.5077,-125.9259)"
         d="M 319.2082 172.51932 A 8.0812206 8.0812206 0 1 1  303.04576,172.51932 A 8.0812206 8.0812206 0 1 1  319.2082 172.51932 z"
         sodipodi:ry="8.0812206"
         sodipodi:rx="8.0812206"
         sodipodi:cy="172.51932"
         sodipodi:cx="311.12698"
         id="path10030"
         style="fill:blue;fill-opacity:1;fill-rule:nonzero;stroke:black;stroke-width:0.99921262;stroke-linecap:butt;stroke-linejoin:miter;stroke-miterlimit:4;stroke-dasharray:none;stroke-opacity:1"
         sodipodi:type="arc" />
      <path
         transform="translate(-254.5569,-126.9641)"
         d="M 319.2082 172.51932 A 8.0812206 8.0812206 0 1 1  303.04576,172.51932 A 8.0812206 8.0812206 0 1 1  319.2082 172.51932 z"
         sodipodi:ry="8.0812206"
         sodipodi:rx="8.0812206"
         sodipodi:cy="172.51932"
         sodipodi:cx="311.12698"
         id="path10032"
         style="fill:red;fill-opacity:1;fill-rule:nonzero;stroke:black;stroke-width:0.99921262;stroke-linecap:butt;stroke-linejoin:miter;stroke-miterlimit:4;stroke-dasharray:none;stroke-opacity:1"
         sodipodi:type="arc" />
    </g>
    <g
       id="g10034"
       transform="matrix(-0.707107,-0.707107,-0.707107,0.707107,597.1279,103.7925)">
      <path
         d="M 177.44984 95.704521 A 71.045418 71.045418 0 1 1  35.359009,95.704521 A 71.045418 71.045418 0 1 1  177.44984 95.704521 z"
         sodipodi:ry="71.045418"
         sodipodi:rx="71.045418"
         sodipodi:cy="95.704521"
         sodipodi:cx="106.40443"
         id="path10036"
         style="opacity:1;fill:none;fill-opacity:1;fill-rule:nonzero;stroke:black;stroke-width:0.99921262;stroke-linecap:butt;stroke-linejoin:miter;stroke-miterlimit:4;stroke-dasharray:none;stroke-opacity:1"
         sodipodi:type="arc" />
      <path
         transform="translate(-204.9955,-147.5504)"
         d="M 319.2082 172.51932 A 8.0812206 8.0812206 0 1 1  303.04576,172.51932 A 8.0812206 8.0812206 0 1 1  319.2082 172.51932 z"
         sodipodi:ry="8.0812206"
         sodipodi:rx="8.0812206"
         sodipodi:cy="172.51932"
         sodipodi:cx="311.12698"
         id="path10038"
         style="fill:red;fill-opacity:1;fill-rule:nonzero;stroke:black;stroke-width:0.99921262;stroke-linecap:butt;stroke-linejoin:miter;stroke-miterlimit:4;stroke-dasharray:none;stroke-opacity:1"
         sodipodi:type="arc" />
      <path
         transform="translate(-275.2831,-76.1933)"
         d="M 319.2082 172.51932 A 8.0812206 8.0812206 0 1 1  303.04576,172.51932 A 8.0812206 8.0812206 0 1 1  319.2082 172.51932 z"
         sodipodi:ry="8.0812206"
         sodipodi:rx="8.0812206"
         sodipodi:cy="172.51932"
         sodipodi:cx="311.12698"
         id="path10040"
         style="fill:red;fill-opacity:1;fill-rule:nonzero;stroke:black;stroke-width:0.99921262;stroke-linecap:butt;stroke-linejoin:miter;stroke-miterlimit:4;stroke-dasharray:none;stroke-opacity:1"
         sodipodi:type="arc" />
      <path
         transform="translate(-134.5481,-77.37461)"
         d="M 319.2082 172.51932 A 8.0812206 8.0812206 0 1 1  303.04576,172.51932 A 8.0812206 8.0812206 0 1 1  319.2082 172.51932 z"
         sodipodi:ry="8.0812206"
         sodipodi:rx="8.0812206"
         sodipodi:cy="172.51932"
         sodipodi:cx="311.12698"
         id="path10042"
         style="fill:red;fill-opacity:1;fill-rule:nonzero;stroke:black;stroke-width:0.99921262;stroke-linecap:butt;stroke-linejoin:miter;stroke-miterlimit:4;stroke-dasharray:none;stroke-opacity:1"
         sodipodi:type="arc" />
      <path
         transform="translate(-204.6681,-4.879057)"
         d="M 319.2082 172.51932 A 8.0812206 8.0812206 0 1 1  303.04576,172.51932 A 8.0812206 8.0812206 0 1 1  319.2082 172.51932 z"
         sodipodi:ry="8.0812206"
         sodipodi:rx="8.0812206"
         sodipodi:cy="172.51932"
         sodipodi:cx="311.12698"
         id="path10044"
         style="fill:blue;fill-opacity:1;fill-rule:nonzero;stroke:black;stroke-width:0.99921262;stroke-linecap:butt;stroke-linejoin:miter;stroke-miterlimit:4;stroke-dasharray:none;stroke-opacity:1"
         sodipodi:type="arc" />
      <path
         transform="translate(-254.6688,-27.21425)"
         d="M 319.2082 172.51932 A 8.0812206 8.0812206 0 1 1  303.04576,172.51932 A 8.0812206 8.0812206 0 1 1  319.2082 172.51932 z"
         sodipodi:ry="8.0812206"
         sodipodi:rx="8.0812206"
         sodipodi:cy="172.51932"
         sodipodi:cx="311.12698"
         id="path10046"
         style="fill:red;fill-opacity:1;fill-rule:nonzero;stroke:black;stroke-width:0.99921262;stroke-linecap:butt;stroke-linejoin:miter;stroke-miterlimit:4;stroke-dasharray:none;stroke-opacity:1"
         sodipodi:type="arc" />
      <path
         transform="translate(-154.8071,-26.94277)"
         d="M 319.2082 172.51932 A 8.0812206 8.0812206 0 1 1  303.04576,172.51932 A 8.0812206 8.0812206 0 1 1  319.2082 172.51932 z"
         sodipodi:ry="8.0812206"
         sodipodi:rx="8.0812206"
         sodipodi:cy="172.51932"
         sodipodi:cx="311.12698"
         id="path10048"
         style="fill:blue;fill-opacity:1;fill-rule:nonzero;stroke:black;stroke-width:0.99921262;stroke-linecap:butt;stroke-linejoin:miter;stroke-miterlimit:4;stroke-dasharray:none;stroke-opacity:1"
         sodipodi:type="arc" />
      <path
         transform="translate(-154.5077,-125.9259)"
         d="M 319.2082 172.51932 A 8.0812206 8.0812206 0 1 1  303.04576,172.51932 A 8.0812206 8.0812206 0 1 1  319.2082 172.51932 z"
         sodipodi:ry="8.0812206"
         sodipodi:rx="8.0812206"
         sodipodi:cy="172.51932"
         sodipodi:cx="311.12698"
         id="path10050"
         style="fill:blue;fill-opacity:1;fill-rule:nonzero;stroke:black;stroke-width:0.99921262;stroke-linecap:butt;stroke-linejoin:miter;stroke-miterlimit:4;stroke-dasharray:none;stroke-opacity:1"
         sodipodi:type="arc" />
      <path
         transform="translate(-254.5569,-126.9641)"
         d="M 319.2082 172.51932 A 8.0812206 8.0812206 0 1 1  303.04576,172.51932 A 8.0812206 8.0812206 0 1 1  319.2082 172.51932 z"
         sodipodi:ry="8.0812206"
         sodipodi:rx="8.0812206"
         sodipodi:cy="172.51932"
         sodipodi:cx="311.12698"
         id="path10052"
         style="fill:red;fill-opacity:1;fill-rule:nonzero;stroke:black;stroke-width:0.99921262;stroke-linecap:butt;stroke-linejoin:miter;stroke-miterlimit:4;stroke-dasharray:none;stroke-opacity:1"
         sodipodi:type="arc" />
    </g>
  </g>
</svg>
